<svg width="19" height="19" viewBox="0 0 19 19" fill="none" xmlns="http://www.w3.org/2000/svg">
<path fill-rule="evenodd" clip-rule="evenodd" d="M9.24854 0.494659C4.30059 0.494659 0.293823 4.51039 0.293823 9.45834C0.293823 14.4063 4.30059 18.422 9.24854 18.422C14.2054 18.422 18.2212 14.4063 18.2212 9.45834C18.2212 4.51039 14.2054 0.494659 9.24854 0.494659ZM10.1539 10.3547V4.9765H8.36113V10.3547H10.1539ZM10.1539 13.9402V12.1474H8.36113V13.9402H10.1539ZM2.08656 9.45833C2.08656 13.4203 5.29555 16.6293 9.2575 16.6293C13.2194 16.6293 16.4284 13.4203 16.4284 9.45833C16.4284 5.49639 13.2194 2.28739 9.2575 2.28739C5.29555 2.28739 2.08656 5.49639 2.08656 9.45833Z" fill="#444444"/>
</svg>
