<svg width="200" height="200" viewBox="0 0 200 200" fill="none" xmlns="http://www.w3.org/2000/svg">
<path fill-rule="evenodd" clip-rule="evenodd" d="M105.945 18H156C157.105 18 158 18.8954 158 20V180C158 181.105 157.105 182 156 182H44C42.8954 182 42 181.105 42 180V20C42 18.8954 42.8954 18 44 18H52.0549C52.0186 18.3283 52 18.662 52 19V67.1106C52 75.082 61.5979 79.1183 67.295 73.5428L78.6251 62.4543C79.0185 62.0693 79.6489 62.0746 80.0358 62.4661L90.5987 73.1541C96.2528 78.8752 106 74.8714 106 66.8277V19C106 18.662 105.981 18.3283 105.945 18ZM97 18H61C60.4477 18 60 18.4477 60 19V67.1106C60 67.9963 61.0664 68.4448 61.6994 67.8253L73.0295 56.7368C76.5697 53.2722 82.244 53.3195 85.7259 56.8426L96.2887 67.5306C96.917 68.1663 98 67.7214 98 66.8277V19C98 18.4477 97.5523 18 97 18ZM97 10H156C161.523 10 166 14.4772 166 20V180C166 185.523 161.523 190 156 190H44C38.4772 190 34 185.523 34 180V20C34 14.4772 38.4772 10 44 10H61H97Z" fill="black"/>
</svg>
