<svg width="200" height="200" viewBox="0 0 200 200" fill="none" xmlns="http://www.w3.org/2000/svg">
<path fill-rule="evenodd" clip-rule="evenodd" d="M119 21H179C180.105 21 181 21.8954 181 23V83C181 84.1046 180.105 85 179 85H119C117.895 85 117 84.1046 117 83V23C117 21.8954 117.895 21 119 21ZM109 23C109 17.4772 113.477 13 119 13H179C184.523 13 189 17.4772 189 23V83C189 88.5229 184.523 93 179 93H119C113.477 93 109 88.5229 109 83V23ZM27 46C27 43.7909 28.7909 42 31 42H88.1177V105.294H27V46ZM96.1177 34.1765L96.1176 105.294H166.529C168.297 105.294 169.796 106.44 170.325 108.029H171.059V170.059C171.059 178.895 163.895 186.059 155.059 186.059H31C22.1635 186.059 15 178.895 15 170.059V46C15 37.1635 22.1634 30 31 30H93.0294V30.2809C94.7992 30.6935 96.1177 32.281 96.1177 34.1765ZM27 113.294H88.1176V174.059H31C28.7909 174.059 27 172.268 27 170.059V113.294ZM159.059 113.294H96.1176V174.059H155.059C157.268 174.059 159.059 172.268 159.059 170.059V113.294Z" fill="black"/>
</svg>
