<svg width="228" height="228" viewBox="0 0 228 228" fill="none" xmlns="http://www.w3.org/2000/svg">
<path fill-rule="evenodd" clip-rule="evenodd" d="M89.3445 17.5C89.3445 13.3579 92.7023 10 96.8445 10H129.716C133.859 10 137.216 13.3579 137.216 17.5C137.216 21.6421 133.859 25 129.716 25H121.26V33.3726C173.065 36.7649 215 76.1704 215 125.612C215 177.344 169.09 218.088 114 218.088C58.91 218.088 13 177.344 13 125.612C13 76.3233 54.6758 37.0088 106.26 33.4051V25H96.8445C92.7023 25 89.3445 21.6421 89.3445 17.5ZM28 125.612C28 83.4815 65.8128 48.1356 114 48.1356C162.187 48.1356 200 83.4815 200 125.612C200 167.742 162.187 203.088 114 203.088C65.8128 203.088 28 167.742 28 125.612ZM129.563 107.934L158.778 125.586L129.563 143.239C126.018 145.381 126.018 148.854 129.563 150.996C133.108 153.138 138.856 153.138 142.401 150.996L178.016 129.477C179.794 128.403 180.68 126.994 180.675 125.586C180.68 124.178 179.794 122.769 178.016 121.695L142.401 100.177C138.856 98.0348 133.108 98.0348 129.563 100.177C126.018 102.319 126.018 105.792 129.563 107.934ZM98.4378 143.238L69.2225 125.586L98.4378 107.934C101.983 105.792 101.983 102.319 98.4378 100.177C94.8926 98.0349 89.1446 98.0349 85.5993 100.177L49.9851 121.695C48.2073 122.77 47.3209 124.178 47.3261 125.586C47.3209 126.994 48.2073 128.403 49.9851 129.477L85.5993 150.996C89.1446 153.138 94.8926 153.138 98.4378 150.996C101.983 148.854 101.983 145.381 98.4378 143.238Z" fill="#444444"/>
</svg>
