<svg width="200" height="200" viewBox="0 0 200 200" fill="none" xmlns="http://www.w3.org/2000/svg">
<path fill-rule="evenodd" clip-rule="evenodd" d="M29 98V31H84V98H29ZM17 29C17 23.4772 21.4772 19 27 19H86C91.5229 19 96 23.4772 96 29V100C96 105.523 91.5229 110 86 110H27C21.4772 110 17 105.523 17 100V29ZM170.566 107.998V174.998H115.566V107.998H170.566ZM182.566 176.998C182.566 182.52 178.089 186.998 172.566 186.998H113.566C108.044 186.998 103.566 182.52 103.566 176.998V105.998C103.566 100.475 108.044 95.9976 113.566 95.9976H172.566C178.089 95.9976 182.566 100.475 182.566 105.998V176.998ZM29 132V175H84V132H29ZM27 120C21.4772 120 17 124.477 17 130V177C17 182.523 21.4772 187 27 187H86C91.5229 187 96 182.523 96 177V130C96 124.477 91.5229 120 86 120H27ZM171.568 31.0032V74.0032H116.568V31.0032H171.568ZM183.568 76.0032C183.568 81.5261 179.091 86.0032 173.568 86.0032H114.568C109.046 86.0032 104.568 81.5261 104.568 76.0032V29.0032C104.568 23.4804 109.046 19.0032 114.568 19.0032H173.568C179.091 19.0032 183.568 23.4804 183.568 29.0032V76.0032Z" fill="black"/>
</svg>
