<svg width="200" height="200" viewBox="0 0 200 200" fill="none" xmlns="http://www.w3.org/2000/svg">
<mask id="path-1-inside-1" fill="white">
<path fill-rule="evenodd" clip-rule="evenodd" d="M15 26C21.6274 26 27 20.6274 27 14C27 7.37258 21.6274 2 15 2C8.37258 2 3 7.37258 3 14C3 20.6274 8.37258 26 15 26ZM27 96C27 102.627 21.6274 108 15 108C8.37258 108 3 102.627 3 96C3 89.3726 8.37258 84 15 84C21.6274 84 27 89.3726 27 96ZM27 178C27 184.627 21.6274 190 15 190C8.37258 190 3 184.627 3 178C3 171.373 8.37258 166 15 166C21.6274 166 27 171.373 27 178ZM110 178C110 184.627 104.627 190 98 190C91.3726 190 86 184.627 86 178C86 171.373 91.3726 166 98 166C104.627 166 110 171.373 110 178ZM98 108C104.627 108 110 102.627 110 96C110 89.3726 104.627 84 98 84C91.3726 84 86 89.3726 86 96C86 102.627 91.3726 108 98 108ZM110 14C110 20.6274 104.627 26 98 26C91.3726 26 86 20.6274 86 14C86 7.37258 91.3726 2 98 2C104.627 2 110 7.37258 110 14ZM179 190C185.627 190 191 184.627 191 178C191 171.373 185.627 166 179 166C172.373 166 167 171.373 167 178C167 184.627 172.373 190 179 190ZM191 96C191 102.627 185.627 108 179 108C172.373 108 167 102.627 167 96C167 89.3726 172.373 84 179 84C185.627 84 191 89.3726 191 96ZM179 26C185.627 26 191 20.6274 191 14C191 7.37258 185.627 2 179 2C172.373 2 167 7.37258 167 14C167 20.6274 172.373 26 179 26Z"/>
</mask>
<path fill-rule="evenodd" clip-rule="evenodd" d="M15 26C21.6274 26 27 20.6274 27 14C27 7.37258 21.6274 2 15 2C8.37258 2 3 7.37258 3 14C3 20.6274 8.37258 26 15 26ZM27 96C27 102.627 21.6274 108 15 108C8.37258 108 3 102.627 3 96C3 89.3726 8.37258 84 15 84C21.6274 84 27 89.3726 27 96ZM27 178C27 184.627 21.6274 190 15 190C8.37258 190 3 184.627 3 178C3 171.373 8.37258 166 15 166C21.6274 166 27 171.373 27 178ZM110 178C110 184.627 104.627 190 98 190C91.3726 190 86 184.627 86 178C86 171.373 91.3726 166 98 166C104.627 166 110 171.373 110 178ZM98 108C104.627 108 110 102.627 110 96C110 89.3726 104.627 84 98 84C91.3726 84 86 89.3726 86 96C86 102.627 91.3726 108 98 108ZM110 14C110 20.6274 104.627 26 98 26C91.3726 26 86 20.6274 86 14C86 7.37258 91.3726 2 98 2C104.627 2 110 7.37258 110 14ZM179 190C185.627 190 191 184.627 191 178C191 171.373 185.627 166 179 166C172.373 166 167 171.373 167 178C167 184.627 172.373 190 179 190ZM191 96C191 102.627 185.627 108 179 108C172.373 108 167 102.627 167 96C167 89.3726 172.373 84 179 84C185.627 84 191 89.3726 191 96ZM179 26C185.627 26 191 20.6274 191 14C191 7.37258 185.627 2 179 2C172.373 2 167 7.37258 167 14C167 20.6274 172.373 26 179 26Z" fill="black"/>
<path d="M26.5 14C26.5 20.3513 21.3513 25.5 15 25.5V26.5C21.9036 26.5 27.5 20.9036 27.5 14H26.5ZM15 2.5C21.3513 2.5 26.5 7.64873 26.5 14H27.5C27.5 7.09644 21.9036 1.5 15 1.5V2.5ZM3.5 14C3.5 7.64873 8.64873 2.5 15 2.5V1.5C8.09644 1.5 2.5 7.09644 2.5 14H3.5ZM15 25.5C8.64873 25.5 3.5 20.3513 3.5 14H2.5C2.5 20.9036 8.09644 26.5 15 26.5V25.5ZM15 108.5C21.9036 108.5 27.5 102.904 27.5 96H26.5C26.5 102.351 21.3513 107.5 15 107.5V108.5ZM2.5 96C2.5 102.904 8.09644 108.5 15 108.5V107.5C8.64873 107.5 3.5 102.351 3.5 96H2.5ZM15 83.5C8.09644 83.5 2.5 89.0964 2.5 96H3.5C3.5 89.6487 8.64873 84.5 15 84.5V83.5ZM27.5 96C27.5 89.0964 21.9036 83.5 15 83.5V84.5C21.3513 84.5 26.5 89.6487 26.5 96H27.5ZM15 190.5C21.9036 190.5 27.5 184.904 27.5 178H26.5C26.5 184.351 21.3513 189.5 15 189.5V190.5ZM2.5 178C2.5 184.904 8.09644 190.5 15 190.5V189.5C8.64873 189.5 3.5 184.351 3.5 178H2.5ZM15 165.5C8.09644 165.5 2.5 171.096 2.5 178H3.5C3.5 171.649 8.64873 166.5 15 166.5V165.5ZM27.5 178C27.5 171.096 21.9036 165.5 15 165.5V166.5C21.3513 166.5 26.5 171.649 26.5 178H27.5ZM98 190.5C104.904 190.5 110.5 184.904 110.5 178H109.5C109.5 184.351 104.351 189.5 98 189.5V190.5ZM85.5 178C85.5 184.904 91.0964 190.5 98 190.5V189.5C91.6487 189.5 86.5 184.351 86.5 178H85.5ZM98 165.5C91.0964 165.5 85.5 171.096 85.5 178H86.5C86.5 171.649 91.6487 166.5 98 166.5V165.5ZM110.5 178C110.5 171.096 104.904 165.5 98 165.5V166.5C104.351 166.5 109.5 171.649 109.5 178H110.5ZM109.5 96C109.5 102.351 104.351 107.5 98 107.5V108.5C104.904 108.5 110.5 102.904 110.5 96H109.5ZM98 84.5C104.351 84.5 109.5 89.6487 109.5 96H110.5C110.5 89.0964 104.904 83.5 98 83.5V84.5ZM86.5 96C86.5 89.6487 91.6487 84.5 98 84.5V83.5C91.0964 83.5 85.5 89.0964 85.5 96H86.5ZM98 107.5C91.6487 107.5 86.5 102.351 86.5 96H85.5C85.5 102.904 91.0964 108.5 98 108.5V107.5ZM98 26.5C104.904 26.5 110.5 20.9036 110.5 14H109.5C109.5 20.3513 104.351 25.5 98 25.5V26.5ZM85.5 14C85.5 20.9036 91.0964 26.5 98 26.5V25.5C91.6487 25.5 86.5 20.3513 86.5 14H85.5ZM98 1.5C91.0964 1.5 85.5 7.09644 85.5 14H86.5C86.5 7.64873 91.6487 2.5 98 2.5V1.5ZM110.5 14C110.5 7.09644 104.904 1.5 98 1.5V2.5C104.351 2.5 109.5 7.64873 109.5 14H110.5ZM190.5 178C190.5 184.351 185.351 189.5 179 189.5V190.5C185.904 190.5 191.5 184.904 191.5 178H190.5ZM179 166.5C185.351 166.5 190.5 171.649 190.5 178H191.5C191.5 171.096 185.904 165.5 179 165.5V166.5ZM167.5 178C167.5 171.649 172.649 166.5 179 166.5V165.5C172.096 165.5 166.5 171.096 166.5 178H167.5ZM179 189.5C172.649 189.5 167.5 184.351 167.5 178H166.5C166.5 184.904 172.096 190.5 179 190.5V189.5ZM179 108.5C185.904 108.5 191.5 102.904 191.5 96H190.5C190.5 102.351 185.351 107.5 179 107.5V108.5ZM166.5 96C166.5 102.904 172.096 108.5 179 108.5V107.5C172.649 107.5 167.5 102.351 167.5 96H166.5ZM179 83.5C172.096 83.5 166.5 89.0964 166.5 96H167.5C167.5 89.6487 172.649 84.5 179 84.5V83.5ZM191.5 96C191.5 89.0964 185.904 83.5 179 83.5V84.5C185.351 84.5 190.5 89.6487 190.5 96H191.5ZM190.5 14C190.5 20.3513 185.351 25.5 179 25.5V26.5C185.904 26.5 191.5 20.9036 191.5 14H190.5ZM179 2.5C185.351 2.5 190.5 7.64873 190.5 14H191.5C191.5 7.09644 185.904 1.5 179 1.5V2.5ZM167.5 14C167.5 7.64873 172.649 2.5 179 2.5V1.5C172.096 1.5 166.5 7.09644 166.5 14H167.5ZM179 25.5C172.649 25.5 167.5 20.3513 167.5 14H166.5C166.5 20.9036 172.096 26.5 179 26.5V25.5Z" fill="black" mask="url(#path-1-inside-1)"/>
</svg>
