<svg width="200" height="200" viewBox="0 0 200 200" fill="none" xmlns="http://www.w3.org/2000/svg">
<path fill-rule="evenodd" clip-rule="evenodd" d="M94.4677 34.7742C94.4677 35.3129 94.3958 35.8944 94.2365 36.5093H94.2212V36.5675C93.4685 39.386 90.8837 42.8957 85.0017 46.2071C78.0409 50.1256 67.8863 52.8016 56.2339 52.8016C44.5816 52.8016 34.427 50.1256 27.4662 46.2071C20.256 42.148 18.0002 37.7909 18.0002 34.7742C18.0002 31.7574 20.256 27.4003 27.4662 23.3413C34.427 19.4227 44.5816 16.7467 56.2339 16.7467C67.8863 16.7467 78.0409 19.4227 85.0017 23.3413C92.2119 27.4003 94.4677 31.7574 94.4677 34.7742ZM102.468 34.7742C102.468 35.6873 102.384 36.5894 102.221 37.4782V68.7098C110.329 61.1948 125.006 56.1745 141.766 56.1745C167.3 56.1745 188 67.8273 188 82.2019C188 83.1147 187.916 84.0165 187.753 84.9051V162.598L187.377 162.598C187.377 171.097 181.227 177.952 173.133 182.453C164.904 187.028 153.806 189.733 141.766 189.733C129.726 189.733 118.629 187.028 110.399 182.453C102.305 177.952 96.1558 171.097 96.1558 162.598L95.5322 162.598V129.14C93.2908 131.397 90.5773 133.37 87.6007 135.025C79.3714 139.601 68.2737 142.305 56.2339 142.305C44.1941 142.305 33.0964 139.601 24.8672 135.025C16.7728 130.525 10.6235 123.669 10.6235 115.17L10 115.17V36.5093H10.1013C10.0342 35.9358 10.0002 35.3572 10.0002 34.7742C10.0002 20.3996 30.6997 8.74675 56.2339 8.74675C81.7681 8.74675 102.468 20.3996 102.468 34.7742ZM56.2339 60.8016C71.9705 60.8016 85.8708 56.3756 94.2212 49.6142V78.1532H93.8443C93.8443 82.4312 90.6787 87.1436 83.7132 91.0164C76.8824 94.8144 67.1749 97.2886 56.2339 97.2886C45.293 97.2886 35.5854 94.8144 28.7547 91.0164C21.7891 87.1436 18.6235 82.4312 18.6235 78.1532H18V49.4125C26.3216 56.2874 40.3413 60.8016 56.2339 60.8016ZM87.6007 98.0084C90.0184 96.6641 92.2626 95.1098 94.2212 93.3643V115.17L93.8443 115.17C93.8443 119.448 90.6787 124.16 83.7132 128.033C76.8824 131.831 67.1749 134.305 56.2339 134.305C45.293 134.305 35.5854 131.831 28.7547 128.033C21.7891 124.16 18.6235 119.448 18.6235 115.17L18 115.17V93.1421C20.016 94.9781 22.3473 96.6073 24.8672 98.0084C33.0964 102.584 44.1941 105.289 56.2339 105.289C68.2737 105.289 79.3714 102.584 87.6007 98.0084ZM180 82.2019C180 82.7406 179.928 83.3221 179.769 83.937H179.753V83.9946C179.001 86.8132 176.416 90.3232 170.534 93.6348C163.573 97.5533 153.418 100.229 141.766 100.229C130.114 100.229 119.959 97.5533 112.998 93.6348C105.788 89.5758 103.532 85.2186 103.532 82.2019C103.532 79.1852 105.788 74.828 112.998 70.769C119.959 66.8504 130.114 64.1745 141.766 64.1745C153.418 64.1745 163.573 66.8504 170.534 70.769C177.744 74.828 180 79.1852 180 82.2019ZM141.766 108.229C157.503 108.229 171.403 103.803 179.753 97.0418V127.894H179.377C179.377 132.172 176.211 136.885 169.245 140.758C162.415 144.556 152.707 147.03 141.766 147.03C130.825 147.03 121.118 144.556 114.287 140.758C107.321 136.885 104.156 132.172 104.156 127.894H103.532V96.8403C111.854 103.715 125.874 108.229 141.766 108.229ZM173.133 147.75C175.551 146.405 177.795 144.851 179.753 143.106V162.598L179.377 162.598C179.377 166.876 176.211 171.588 169.245 175.461C162.415 179.259 152.707 181.733 141.766 181.733C130.825 181.733 121.118 179.259 114.287 175.461C107.321 171.588 104.156 166.876 104.156 162.598L103.532 162.598V142.883C105.548 144.719 107.88 146.349 110.399 147.75C118.629 152.325 129.726 155.03 141.766 155.03C153.806 155.03 164.904 152.325 173.133 147.75Z" fill="black"/>
<path d="M94.2365 36.5093V38.0093H95.3975L95.6886 36.8854L94.2365 36.5093ZM94.2212 36.5093V35.0093H92.7212V36.5093H94.2212ZM94.2212 36.5675L95.6704 36.9545L95.7212 36.7643V36.5675H94.2212ZM85.0017 46.2071L85.7375 47.5142L85.7375 47.5142L85.0017 46.2071ZM27.4662 46.2071L26.7304 47.5142L26.7304 47.5142L27.4662 46.2071ZM27.4662 23.3413L28.202 24.6484L27.4662 23.3413ZM85.0017 23.3413L84.2658 24.6484L84.2658 24.6484L85.0017 23.3413ZM102.221 37.4782L100.746 37.2077L100.721 37.3418V37.4782H102.221ZM102.221 68.7098H100.721V72.1454L103.241 69.81L102.221 68.7098ZM187.753 84.9051L186.278 84.6346L186.253 84.7687V84.9051H187.753ZM187.753 162.598L187.753 164.098L189.253 164.098V162.598H187.753ZM187.377 162.598L187.376 161.098L185.877 161.098V162.598H187.377ZM173.133 182.453L172.404 181.142L172.404 181.142L173.133 182.453ZM110.399 182.453L109.67 183.764L109.67 183.764L110.399 182.453ZM96.1558 162.598H97.6558V161.098L96.1558 161.098L96.1558 162.598ZM95.5322 162.598H94.0322V164.098L95.5322 164.098L95.5322 162.598ZM95.5322 129.14H97.0322V125.502L94.468 128.083L95.5322 129.14ZM87.6007 135.025L86.8718 133.714L86.8718 133.714L87.6007 135.025ZM24.8672 135.025L24.1383 136.336L24.1383 136.336L24.8672 135.025ZM10.6235 115.17H12.1235V113.67L10.6235 113.67L10.6235 115.17ZM10 115.17H8.5V116.67L10 116.67L10 115.17ZM10 36.5093V35.0093H8.5V36.5093H10ZM10.1013 36.5093V38.0093H11.7869L11.5911 36.3351L10.1013 36.5093ZM94.2212 49.6142H95.7212V46.4696L93.2773 48.4485L94.2212 49.6142ZM94.2212 78.1532V79.6532H95.7212V78.1532H94.2212ZM93.8443 78.1532V76.6532H92.3443V78.1532H93.8443ZM83.7132 91.0164L82.9842 89.7055L82.9842 89.7055L83.7132 91.0164ZM28.7547 91.0164L29.4836 89.7055L29.4836 89.7055L28.7547 91.0164ZM18.6235 78.1532H20.1235V76.6532H18.6235V78.1532ZM18 78.1532H16.5V79.6532H18V78.1532ZM18 49.4125L18.9554 48.2561L16.5 46.2276V49.4125H18ZM94.2212 93.3643H95.7212V90.0183L93.2232 92.2444L94.2212 93.3643ZM87.6007 98.0084L88.3296 99.3194L88.3296 99.3194L87.6007 98.0084ZM94.2212 115.17L94.2212 116.67L95.7212 116.67V115.17H94.2212ZM93.8443 115.17L93.8443 113.67L92.3443 113.67V115.17H93.8443ZM83.7132 128.033L82.9842 126.722L82.9842 126.722L83.7132 128.033ZM28.7547 128.033L29.4836 126.722L29.4836 126.722L28.7547 128.033ZM18.6235 115.17H20.1235V113.67L18.6235 113.67L18.6235 115.17ZM18 115.17H16.5V116.67L18 116.67L18 115.17ZM18 93.1421L19.01 92.0331L16.5 89.7471V93.1421H18ZM24.8672 98.0084L25.5961 96.6974L25.5961 96.6974L24.8672 98.0084ZM179.769 83.937V85.437H180.93L181.221 84.3131L179.769 83.937ZM179.753 83.937V82.437H178.253V83.937H179.753ZM179.753 83.9946L181.203 84.3815L181.253 84.1914V83.9946H179.753ZM170.534 93.6348L171.27 94.9419L171.27 94.9419L170.534 93.6348ZM112.998 93.6348L112.262 94.9419L112.262 94.9419L112.998 93.6348ZM112.998 70.769L112.262 69.4619L112.262 69.4619L112.998 70.769ZM170.534 70.769L169.798 72.0761L169.798 72.0761L170.534 70.769ZM179.753 97.0418H181.253V93.8971L178.809 95.8761L179.753 97.0418ZM179.753 127.894V129.394H181.253V127.894H179.753ZM179.377 127.894V126.394H177.877V127.894H179.377ZM169.245 140.758L168.516 139.447L168.516 139.447L169.245 140.758ZM114.287 140.758L115.016 139.447L115.016 139.447L114.287 140.758ZM104.156 127.894H105.656V126.394H104.156V127.894ZM103.532 127.894H102.032V129.394H103.532V127.894ZM103.532 96.8403L104.488 95.6839L102.032 93.6555V96.8403H103.532ZM179.753 143.106H181.253V139.76L178.755 141.986L179.753 143.106ZM173.133 147.75L173.862 149.061L173.862 149.061L173.133 147.75ZM179.753 162.598L179.753 164.098L181.253 164.098V162.598H179.753ZM179.377 162.598L179.376 161.098L177.877 161.098V162.598H179.377ZM169.245 175.461L169.974 176.772L169.974 176.772L169.245 175.461ZM114.287 175.461L113.558 176.772L113.558 176.772L114.287 175.461ZM104.156 162.598H105.656V161.098L104.156 161.098L104.156 162.598ZM103.532 162.598H102.032V164.098L103.532 164.098L103.532 162.598ZM103.532 142.883L104.542 141.774L102.032 139.488V142.883H103.532ZM110.399 147.75L109.67 149.061L109.67 149.061L110.399 147.75ZM95.6886 36.8854C95.8779 36.1544 95.9677 35.4466 95.9677 34.7742H92.9677C92.9677 35.1792 92.9136 35.6344 92.7844 36.1332L95.6886 36.8854ZM94.2212 38.0093H94.2365V35.0093H94.2212V38.0093ZM95.7212 36.5675V36.5093H92.7212V36.5675H95.7212ZM85.7375 47.5142C91.8238 44.0879 94.7766 40.3013 95.6704 36.9545L92.772 36.1805C92.1603 38.4708 89.9436 41.7036 84.2658 44.8999L85.7375 47.5142ZM56.2339 54.3016C68.0954 54.3016 78.5132 51.5811 85.7375 47.5142L84.2658 44.8999C77.5686 48.6702 67.6771 51.3016 56.2339 51.3016V54.3016ZM26.7304 47.5142C33.9546 51.5811 44.3724 54.3016 56.2339 54.3016V51.3016C44.7908 51.3016 34.8993 48.6702 28.202 44.8999L26.7304 47.5142ZM16.5002 34.7742C16.5002 38.5621 19.2895 43.3253 26.7304 47.5142L28.202 44.8999C21.2224 40.9708 19.5002 37.0196 19.5002 34.7742H16.5002ZM26.7304 22.0341C19.2895 26.223 16.5002 30.9862 16.5002 34.7742H19.5002C19.5002 32.5287 21.2224 28.5776 28.202 24.6484L26.7304 22.0341ZM56.2339 15.2467C44.3724 15.2467 33.9546 17.9672 26.7304 22.0341L28.202 24.6484C34.8993 20.8781 44.7908 18.2467 56.2339 18.2467V15.2467ZM85.7375 22.0341C78.5132 17.9672 68.0954 15.2467 56.2339 15.2467V18.2467C67.6771 18.2467 77.5686 20.8781 84.2658 24.6484L85.7375 22.0341ZM95.9677 34.7742C95.9677 30.9862 93.1783 26.223 85.7375 22.0341L84.2658 24.6484C91.2454 28.5776 92.9677 32.5287 92.9677 34.7742H95.9677ZM103.697 37.7488C103.876 36.7718 103.968 35.7792 103.968 34.7742H100.968C100.968 35.5953 100.893 36.4069 100.746 37.2077L103.697 37.7488ZM103.721 68.7098V37.4782H100.721V68.7098H103.721ZM141.766 54.6745C124.768 54.6745 109.675 59.756 101.202 67.6097L103.241 69.81C110.983 62.6336 125.244 57.6745 141.766 57.6745V54.6745ZM189.5 82.2019C189.5 74.2326 183.778 67.3227 175.194 62.4906C166.564 57.6322 154.742 54.6745 141.766 54.6745V57.6745C154.324 57.6745 165.619 60.5432 173.722 65.1048C181.872 69.6928 186.5 75.7966 186.5 82.2019H189.5ZM189.229 85.1755C189.408 84.1989 189.5 83.2066 189.5 82.2019H186.5C186.5 83.0228 186.425 83.8341 186.278 84.6346L189.229 85.1755ZM189.253 162.598V84.9051H186.253V162.598H189.253ZM187.377 164.098L187.753 164.098L187.753 161.098L187.376 161.098L187.377 164.098ZM173.862 183.764C182.164 179.148 188.877 171.892 188.877 162.598H185.877C185.877 170.302 180.291 176.757 172.404 181.142L173.862 183.764ZM141.766 191.233C154.012 191.233 165.37 188.485 173.862 183.764L172.404 181.142C164.437 185.572 153.6 188.233 141.766 188.233V191.233ZM109.67 183.764C118.162 188.485 129.52 191.233 141.766 191.233V188.233C129.932 188.233 119.095 185.572 111.128 181.142L109.67 183.764ZM94.6558 162.598C94.6558 171.892 101.369 179.148 109.67 183.764L111.128 181.142C103.241 176.757 97.6558 170.302 97.6558 162.598H94.6558ZM95.5322 164.098L96.1557 164.098L96.1558 161.098L95.5323 161.098L95.5322 164.098ZM94.0322 129.14V162.598H97.0322V129.14H94.0322ZM88.3296 136.336C91.4069 134.625 94.2391 132.57 96.5964 130.197L94.468 128.083C92.3425 130.223 89.7476 132.115 86.8718 133.714L88.3296 136.336ZM56.2339 143.805C68.4797 143.805 79.8381 141.057 88.3296 136.336L86.8718 133.714C78.9048 138.144 68.0678 140.805 56.2339 140.805V143.805ZM24.1383 136.336C32.6298 141.057 43.9881 143.805 56.2339 143.805V140.805C44.4001 140.805 33.5631 138.144 25.5961 133.714L24.1383 136.336ZM9.12354 115.17C9.12354 124.464 15.8364 131.72 24.1383 136.336L25.5961 133.714C17.7091 129.329 12.1235 122.875 12.1235 115.17H9.12354ZM10 116.67L10.6236 116.67L10.6235 113.67L9.99998 113.67L10 116.67ZM8.5 36.5093V115.17H11.5V36.5093H8.5ZM10.1013 35.0093H10V38.0093H10.1013V35.0093ZM8.50016 34.7742C8.50016 35.4157 8.53764 36.0525 8.61142 36.6835L11.5911 36.3351C11.5308 35.8191 11.5002 35.2987 11.5002 34.7742H8.50016ZM56.2339 7.24675C43.2578 7.24675 31.4362 10.2045 22.8059 15.0629C14.2224 19.895 8.50016 26.8049 8.50016 34.7742H11.5002C11.5002 28.3689 16.1277 22.2651 24.2776 17.6771C32.3806 13.1155 43.6758 10.2467 56.2339 10.2467V7.24675ZM103.968 34.7742C103.968 26.8049 98.2455 19.895 89.662 15.0629C81.0317 10.2045 69.2101 7.24675 56.2339 7.24675V10.2467C68.792 10.2467 80.0872 13.1155 88.1903 17.6771C96.3401 22.2651 100.968 28.3689 100.968 34.7742H103.968ZM93.2773 48.4485C85.2678 54.9338 71.7357 59.3016 56.2339 59.3016V62.3016C72.2054 62.3016 86.4739 57.8173 95.1651 50.78L93.2773 48.4485ZM95.7212 78.1532V49.6142H92.7212V78.1532H95.7212ZM93.8443 79.6532H94.2212V76.6532H93.8443V79.6532ZM84.4421 92.3274C91.6257 88.3333 95.3443 83.2178 95.3443 78.1532H92.3443C92.3443 81.6446 89.7318 85.9538 82.9842 89.7055L84.4421 92.3274ZM56.2339 98.7886C67.381 98.7886 77.3491 96.2711 84.4421 92.3274L82.9842 89.7055C76.4157 93.3576 66.9688 95.7886 56.2339 95.7886V98.7886ZM28.0258 92.3274C35.1187 96.2711 45.0868 98.7886 56.2339 98.7886V95.7886C45.4991 95.7886 36.0522 93.3576 29.4836 89.7055L28.0258 92.3274ZM17.1235 78.1532C17.1235 83.2178 20.8421 88.3333 28.0258 92.3274L29.4836 89.7055C22.7361 85.9538 20.1235 81.6446 20.1235 78.1532H17.1235ZM18 79.6532H18.6235V76.6532H18V79.6532ZM16.5 49.4125V78.1532H19.5V49.4125H16.5ZM56.2339 59.3016C40.5769 59.3016 26.9322 54.8462 18.9554 48.2561L17.0446 50.5689C25.711 57.7286 40.1058 62.3016 56.2339 62.3016V59.3016ZM93.2232 92.2444C91.3578 93.9069 89.2066 95.3992 86.8718 96.6974L88.3296 99.3194C90.8302 97.929 93.1673 96.3127 95.2192 94.4841L93.2232 92.2444ZM95.7212 115.17V93.3643H92.7212V115.17H95.7212ZM93.8443 116.67L94.2212 116.67L94.2212 113.67L93.8443 113.67L93.8443 116.67ZM84.4421 129.344C91.6257 125.35 95.3443 120.235 95.3443 115.17H92.3443C92.3443 118.661 89.7318 122.971 82.9842 126.722L84.4421 129.344ZM56.2339 135.805C67.381 135.805 77.3491 133.288 84.4421 129.344L82.9842 126.722C76.4157 130.374 66.9688 132.805 56.2339 132.805V135.805ZM28.0258 129.344C35.1187 133.288 45.0868 135.805 56.2339 135.805V132.805C45.4991 132.805 36.0522 130.374 29.4836 126.722L28.0258 129.344ZM17.1235 115.17C17.1235 120.235 20.8421 125.35 28.0258 129.344L29.4836 126.722C22.7361 122.971 20.1235 118.661 20.1235 115.17H17.1235ZM18 116.67L18.6236 116.67L18.6235 113.67L18 113.67L18 116.67ZM16.5 93.1421V115.17H19.5V93.1421H16.5ZM25.5961 96.6974C23.1624 95.3443 20.9286 93.7804 19.01 92.0331L16.99 94.2511C19.1034 96.1758 21.5322 97.8704 24.1383 99.3194L25.5961 96.6974ZM56.2339 103.789C44.4001 103.789 33.5631 101.127 25.5961 96.6974L24.1383 99.3194C32.6298 104.041 43.9881 106.789 56.2339 106.789V103.789ZM86.8718 96.6974C78.9048 101.127 68.0678 103.789 56.2339 103.789V106.789C68.4797 106.789 79.8381 104.041 88.3296 99.3194L86.8718 96.6974ZM181.221 84.3131C181.41 83.5821 181.5 82.8742 181.5 82.2019H178.5C178.5 82.607 178.446 83.0621 178.316 83.5609L181.221 84.3131ZM179.753 85.437H179.769V82.437H179.753V85.437ZM181.253 83.9946V83.937H178.253V83.9946H181.253ZM171.27 94.9419C177.356 91.5154 180.309 87.7284 181.203 84.3815L178.304 83.6077C177.693 85.898 175.476 89.1311 169.798 92.3277L171.27 94.9419ZM141.766 101.729C153.628 101.729 164.045 99.0088 171.27 94.9419L169.798 92.3277C163.101 96.0979 153.209 98.7293 141.766 98.7293V101.729ZM112.262 94.9419C119.487 99.0088 129.904 101.729 141.766 101.729V98.7293C130.323 98.7293 120.431 96.0979 113.734 92.3277L112.262 94.9419ZM102.032 82.2019C102.032 85.9899 104.822 90.753 112.262 94.9419L113.734 92.3277C106.755 88.3985 105.032 84.4473 105.032 82.2019H102.032ZM112.262 69.4619C104.822 73.6507 102.032 78.4139 102.032 82.2019H105.032C105.032 79.9564 106.755 76.0053 113.734 72.0761L112.262 69.4619ZM141.766 62.6745C129.904 62.6745 119.487 65.395 112.262 69.4619L113.734 72.0761C120.431 68.3059 130.323 65.6745 141.766 65.6745V62.6745ZM171.27 69.4619C164.045 65.395 153.628 62.6745 141.766 62.6745V65.6745C153.209 65.6745 163.101 68.3059 169.798 72.0761L171.27 69.4619ZM181.5 82.2019C181.5 78.4139 178.71 73.6507 171.27 69.4619L169.798 72.0761C176.777 76.0053 178.5 79.9564 178.5 82.2019H181.5ZM178.809 95.8761C170.8 102.361 157.268 106.729 141.766 106.729V109.729C157.738 109.729 172.006 105.245 180.697 98.2076L178.809 95.8761ZM181.253 127.894V97.0418H178.253V127.894H181.253ZM179.377 129.394H179.753V126.394H179.377V129.394ZM169.974 142.069C177.158 138.075 180.877 132.959 180.877 127.894H177.877C177.877 131.386 175.264 135.695 168.516 139.447L169.974 142.069ZM141.766 148.53C152.913 148.53 162.881 146.012 169.974 142.069L168.516 139.447C161.948 143.099 152.501 145.53 141.766 145.53V148.53ZM113.558 142.069C120.651 146.012 130.619 148.53 141.766 148.53V145.53C131.031 145.53 121.584 143.099 115.016 139.447L113.558 142.069ZM102.656 127.894C102.656 132.959 106.374 138.075 113.558 142.069L115.016 139.447C108.268 135.695 105.656 131.386 105.656 127.894H102.656ZM103.532 129.394H104.156V126.394H103.532V129.394ZM102.032 96.8403V127.894H105.032V96.8403H102.032ZM141.766 106.729C126.109 106.729 112.464 102.274 104.488 95.6839L102.577 97.9967C111.243 105.156 125.638 109.729 141.766 109.729V106.729ZM178.755 141.986C176.89 143.648 174.739 145.14 172.404 146.439L173.862 149.061C176.362 147.67 178.7 146.054 180.751 144.225L178.755 141.986ZM181.253 162.598V143.106H178.253V162.598H181.253ZM179.377 164.098L179.753 164.098L179.753 161.098L179.376 161.098L179.377 164.098ZM169.974 176.772C177.158 172.778 180.877 167.662 180.877 162.598H177.877C177.877 166.089 175.264 170.398 168.516 174.15L169.974 176.772ZM141.766 183.233C152.913 183.233 162.881 180.716 169.974 176.772L168.516 174.15C161.948 177.802 152.501 180.233 141.766 180.233V183.233ZM113.558 176.772C120.651 180.716 130.619 183.233 141.766 183.233V180.233C131.031 180.233 121.584 177.802 115.016 174.15L113.558 176.772ZM102.656 162.598C102.656 167.662 106.374 172.778 113.558 176.772L115.016 174.15C108.268 170.398 105.656 166.089 105.656 162.598H102.656ZM103.532 164.098L104.156 164.098L104.156 161.098L103.532 161.098L103.532 164.098ZM102.032 142.883V162.598H105.032V142.883H102.032ZM111.128 146.439C108.695 145.086 106.461 143.522 104.542 141.774L102.522 143.992C104.636 145.917 107.064 147.612 109.67 149.061L111.128 146.439ZM141.766 153.53C129.932 153.53 119.095 150.868 111.128 146.439L109.67 149.061C118.162 153.782 129.52 156.53 141.766 156.53V153.53ZM172.404 146.439C164.437 150.868 153.6 153.53 141.766 153.53V156.53C154.012 156.53 165.37 153.782 173.862 149.061L172.404 146.439Z" fill="black"/>
</svg>
