<svg width="200" height="200" viewBox="0 0 200 200" fill="none" xmlns="http://www.w3.org/2000/svg">
<path fill-rule="evenodd" clip-rule="evenodd" d="M95 5C92.2386 5 90 7.23858 90 10V21H41C35.4772 21 31 25.4772 31 31V185C31 190.523 35.4772 195 41 195H159C164.523 195 169 190.523 169 185V31C169 25.4772 164.523 21 159 21H112V10C112 7.23858 109.761 5 107 5H95ZM90 29H41C39.8954 29 39 29.8954 39 31V185C39 185.371 39.1011 185.719 39.2773 186.017C39.9588 182.086 41.8459 177.484 44.3769 172.869C47.6711 166.862 52.3691 160.272 58.073 154.145C66.7431 144.833 78.1561 136.159 90.8987 132.646C76.5165 128.488 66 115.222 66 99.5C66 80.4462 81.4462 65 100.5 65C119.554 65 135 80.4462 135 99.5C135 114.521 125.4 127.3 112.001 132.037C125.554 135.064 137.208 144.307 145.754 154.266C151.03 160.415 155.287 167.019 158.242 173.026C159.317 175.212 160.251 177.381 161 179.467V31C161 29.8954 160.105 29 159 29H112V35C112 35.3425 111.966 35.6769 111.9 36H120C122.209 36 124 37.7909 124 40C124 42.2091 122.209 44 120 44H83C80.7909 44 79 42.2091 79 40C79 37.7909 80.7909 36 83 36H90.1C90.0344 35.6769 90 35.3425 90 35V29ZM154.806 187C154.367 184.432 153.164 180.827 151.064 176.558C148.407 171.158 144.523 165.117 139.683 159.476C129.888 148.062 116.828 139 102.719 139C88.5448 139 74.6042 148.129 63.9283 159.596C58.6554 165.26 54.3531 171.315 51.3912 176.716C49.0597 180.967 47.7276 184.507 47.2287 187H154.806ZM100.5 126C115.136 126 127 114.136 127 99.5C127 84.8645 115.136 73 100.5 73C85.8645 73 74 84.8645 74 99.5C74 114.136 85.8645 126 100.5 126Z" fill="black"/>
<path d="M90 21V22.5H91.5V21H90ZM112 21H110.5V22.5H112V21ZM90 29H91.5V27.5H90V29ZM39.2773 186.017L37.9863 186.78L40.0596 190.286L40.7553 186.273L39.2773 186.017ZM44.3769 172.869L43.0617 172.147L43.0617 172.147L44.3769 172.869ZM58.073 154.145L59.1709 155.167L59.1709 155.167L58.073 154.145ZM90.8987 132.646L91.2974 134.092L96.4178 132.681L91.3154 131.205L90.8987 132.646ZM112.001 132.037L111.501 130.622L106.578 132.363L111.674 133.501L112.001 132.037ZM145.754 154.266L144.615 155.243L144.615 155.243L145.754 154.266ZM158.242 173.026L159.588 172.364L159.588 172.364L158.242 173.026ZM161 179.467L159.588 179.974L162.5 179.467H161ZM112 29V27.5H110.5V29H112ZM111.9 36L110.43 35.7016L110.065 37.5H111.9V36ZM90.1 36V37.5H91.9351L91.57 35.7016L90.1 36ZM151.064 176.558L149.718 177.22L149.718 177.22L151.064 176.558ZM154.806 187V188.5H156.585L156.285 186.747L154.806 187ZM139.683 159.476L140.821 158.499L140.821 158.499L139.683 159.476ZM63.9283 159.596L62.8304 158.574L62.8304 158.574L63.9283 159.596ZM51.3912 176.716L50.076 175.994L50.076 175.994L51.3912 176.716ZM47.2287 187L45.7579 186.706L45.3987 188.5H47.2287V187ZM91.5 10C91.5 8.067 93.067 6.5 95 6.5V3.5C91.4101 3.5 88.5 6.41015 88.5 10H91.5ZM91.5 21V10H88.5V21H91.5ZM41 22.5H90V19.5H41V22.5ZM32.5 31C32.5 26.3056 36.3056 22.5 41 22.5V19.5C34.6487 19.5 29.5 24.6487 29.5 31H32.5ZM32.5 185V31H29.5V185H32.5ZM41 193.5C36.3056 193.5 32.5 189.694 32.5 185H29.5C29.5 191.351 34.6487 196.5 41 196.5V193.5ZM159 193.5H41V196.5H159V193.5ZM167.5 185C167.5 189.694 163.694 193.5 159 193.5V196.5C165.351 196.5 170.5 191.351 170.5 185H167.5ZM167.5 31V185H170.5V31H167.5ZM159 22.5C163.694 22.5 167.5 26.3056 167.5 31H170.5C170.5 24.6487 165.351 19.5 159 19.5V22.5ZM112 22.5H159V19.5H112V22.5ZM110.5 10V21H113.5V10H110.5ZM107 6.5C108.933 6.5 110.5 8.067 110.5 10H113.5C113.5 6.41015 110.59 3.5 107 3.5V6.5ZM95 6.5H107V3.5H95V6.5ZM41 30.5H90V27.5H41V30.5ZM40.5 31C40.5 30.7239 40.7239 30.5 41 30.5V27.5C39.067 27.5 37.5 29.067 37.5 31H40.5ZM40.5 185V31H37.5V185H40.5ZM40.5684 185.253C40.5252 185.18 40.5 185.095 40.5 185H37.5C37.5 185.647 37.677 186.258 37.9863 186.78L40.5684 185.253ZM43.0617 172.147C40.4929 176.831 38.5208 181.599 37.7994 185.76L40.7553 186.273C41.3968 182.573 43.1989 178.136 45.692 173.59L43.0617 172.147ZM56.9752 153.123C51.1904 159.336 46.4183 166.027 43.0617 172.147L45.692 173.59C48.924 167.697 53.5478 161.207 59.1709 155.167L56.9752 153.123ZM90.5001 131.2C77.3925 134.814 65.7516 143.696 56.9752 153.123L59.1709 155.167C67.7345 145.969 78.9196 137.505 91.2974 134.092L90.5001 131.2ZM64.5 99.5C64.5 115.908 75.4754 129.748 90.4821 134.087L91.3154 131.205C77.5576 127.227 67.5 114.536 67.5 99.5H64.5ZM100.5 63.5C80.6177 63.5 64.5 79.6177 64.5 99.5H67.5C67.5 81.2746 82.2746 66.5 100.5 66.5V63.5ZM136.5 99.5C136.5 79.6177 120.382 63.5 100.5 63.5V66.5C118.725 66.5 133.5 81.2746 133.5 99.5H136.5ZM112.5 133.451C126.48 128.509 136.5 115.177 136.5 99.5H133.5C133.5 113.866 124.32 126.091 111.501 130.622L112.5 133.451ZM146.892 153.289C138.234 143.199 126.318 133.697 112.327 130.573L111.674 133.501C124.789 136.43 136.182 145.415 144.615 155.243L146.892 153.289ZM159.588 172.364C156.577 166.243 152.25 159.533 146.892 153.289L144.615 155.243C149.81 161.297 153.997 167.795 156.896 173.689L159.588 172.364ZM162.412 178.96C161.641 176.813 160.684 174.592 159.588 172.364L156.896 173.689C157.95 175.831 158.861 177.948 159.588 179.974L162.412 178.96ZM159.5 31V179.467H162.5V31H159.5ZM159 30.5C159.276 30.5 159.5 30.7239 159.5 31H162.5C162.5 29.067 160.933 27.5 159 27.5V30.5ZM112 30.5H159V27.5H112V30.5ZM110.5 29V35H113.5V29H110.5ZM110.5 35C110.5 35.2417 110.476 35.4761 110.43 35.7016L113.37 36.2984C113.455 35.8776 113.5 35.4433 113.5 35H110.5ZM120 34.5H111.9V37.5H120V34.5ZM125.5 40C125.5 36.9624 123.038 34.5 120 34.5V37.5C121.381 37.5 122.5 38.6193 122.5 40H125.5ZM120 45.5C123.038 45.5 125.5 43.0376 125.5 40H122.5C122.5 41.3807 121.381 42.5 120 42.5V45.5ZM83 45.5H120V42.5H83V45.5ZM77.5 40C77.5 43.0376 79.9624 45.5 83 45.5V42.5C81.6193 42.5 80.5 41.3807 80.5 40H77.5ZM83 34.5C79.9624 34.5 77.5 36.9624 77.5 40H80.5C80.5 38.6193 81.6193 37.5 83 37.5V34.5ZM90.1 34.5H83V37.5H90.1V34.5ZM91.57 35.7016C91.5243 35.4762 91.5 35.2417 91.5 35H88.5C88.5 35.4433 88.5446 35.8776 88.63 36.2984L91.57 35.7016ZM91.5 35V29H88.5V35H91.5ZM149.718 177.22C151.779 181.41 152.92 184.873 153.328 187.253L156.285 186.747C155.813 183.991 154.549 180.245 152.41 175.896L149.718 177.22ZM138.544 160.452C143.303 165.998 147.117 171.933 149.718 177.22L152.41 175.896C149.697 170.382 145.743 164.235 140.821 158.499L138.544 160.452ZM102.719 140.5C116.19 140.5 128.872 149.181 138.544 160.452L140.821 158.499C130.905 146.943 117.466 137.5 102.719 137.5V140.5ZM65.0261 160.618C75.5887 149.273 89.1586 140.5 102.719 140.5V137.5C87.9311 137.5 73.6196 146.986 62.8304 158.574L65.0261 160.618ZM52.7064 177.437C55.6059 172.15 59.8341 166.195 65.0261 160.618L62.8304 158.574C57.4768 164.325 53.1002 170.48 50.076 175.994L52.7064 177.437ZM48.6995 187.294C49.1582 185.003 50.4176 181.61 52.7064 177.437L50.076 175.994C47.7018 180.323 46.297 184.012 45.7579 186.706L48.6995 187.294ZM154.806 185.5H47.2287V188.5H154.806V185.5ZM125.5 99.5C125.5 113.307 114.307 124.5 100.5 124.5V127.5C115.964 127.5 128.5 114.964 128.5 99.5H125.5ZM100.5 74.5C114.307 74.5 125.5 85.6929 125.5 99.5H128.5C128.5 84.036 115.964 71.5 100.5 71.5V74.5ZM75.5 99.5C75.5 85.6929 86.6929 74.5 100.5 74.5V71.5C85.036 71.5 72.5 84.036 72.5 99.5H75.5ZM100.5 124.5C86.6929 124.5 75.5 113.307 75.5 99.5H72.5C72.5 114.964 85.036 127.5 100.5 127.5V124.5Z" fill="black"/>
</svg>
