<svg width="200" height="200" viewBox="0 0 200 200" fill="none" xmlns="http://www.w3.org/2000/svg">
<path d="M126.32 118.725C126.32 124.628 124.058 129.65 119.535 133.79C115.012 137.853 108.38 140.115 99.64 140.575V153.8H93.89V140.69C88.2933 140.383 83.0033 139.31 78.02 137.47C73.1133 135.553 69.2417 133.138 66.405 130.225L69.74 123.67C72.4233 126.277 75.9117 128.462 80.205 130.225C84.575 131.988 89.1367 133.023 93.89 133.33V103.085C88.6 101.782 84.1917 100.402 80.665 98.945C77.1383 97.4117 74.1867 95.2267 71.81 92.39C69.51 89.4767 68.36 85.6433 68.36 80.89C68.36 74.9867 70.5067 70.0417 74.8 66.055C79.0933 61.9917 85.4567 59.615 93.89 58.925V45.7H99.64V58.81C104.01 58.9633 108.227 59.6917 112.29 60.995C116.43 62.2217 119.995 63.87 122.985 65.94L120.11 72.725C116.967 70.7317 113.632 69.16 110.105 68.01C106.578 66.86 103.09 66.2083 99.64 66.055V96.53C105.313 97.91 109.952 99.3283 113.555 100.785C117.158 102.165 120.187 104.312 122.64 107.225C125.093 110.138 126.32 113.972 126.32 118.725ZM76.755 80.66C76.755 84.6467 78.2117 87.675 81.125 89.745C84.115 91.815 88.37 93.5783 93.89 95.035V66.285C88.2167 66.745 83.9233 68.3167 81.01 71C78.1733 73.6067 76.755 76.8267 76.755 80.66ZM99.64 133.33C105.697 132.87 110.258 131.375 113.325 128.845C116.392 126.315 117.925 123.095 117.925 119.185C117.925 115.045 116.353 111.94 113.21 109.87C110.067 107.8 105.543 106.037 99.64 104.58V133.33Z" fill="black"/>
<path d="M119.535 133.79L120.872 135.278L120.878 135.272L120.885 135.265L119.535 133.79ZM99.64 140.575L99.5349 138.578L97.64 138.677V140.575H99.64ZM99.64 153.8V155.8H101.64V153.8H99.64ZM93.89 153.8H91.89V155.8H93.89V153.8ZM93.89 140.69H95.89V138.797L93.9994 138.693L93.89 140.69ZM78.02 137.47L77.2923 139.333L77.3097 139.34L77.3273 139.346L78.02 137.47ZM66.405 130.225L64.6224 129.318L63.9731 130.594L64.9721 131.62L66.405 130.225ZM69.74 123.67L71.1336 122.235L69.1876 120.345L67.9574 122.763L69.74 123.67ZM80.205 130.225L79.4451 132.075L79.4566 132.08L80.205 130.225ZM93.89 133.33L93.7612 135.326L95.89 135.463V133.33H93.89ZM93.89 103.085H95.89V101.518L94.3684 101.143L93.89 103.085ZM80.665 98.945L79.8675 100.779L79.8844 100.786L79.9015 100.794L80.665 98.945ZM71.81 92.39L70.2402 93.6293L70.2583 93.6521L70.277 93.6744L71.81 92.39ZM74.8 66.055L76.1609 67.5206L76.1679 67.5141L76.1748 67.5076L74.8 66.055ZM93.89 58.925L94.0531 60.9183L95.89 60.768V58.925H93.89ZM93.89 45.7V43.7H91.89V45.7H93.89ZM99.64 45.7H101.64V43.7H99.64V45.7ZM99.64 58.81H97.64V60.7411L99.5699 60.8088L99.64 58.81ZM112.29 60.995L111.679 62.8994L111.7 62.9062L111.722 62.9126L112.29 60.995ZM122.985 65.94L124.827 66.7203L125.461 65.2219L124.123 64.2956L122.985 65.94ZM120.11 72.725L119.039 74.414L121.031 75.6774L121.952 73.5053L120.11 72.725ZM110.105 68.01L110.725 66.1085L110.725 66.1085L110.105 68.01ZM99.64 66.055L99.7288 64.057L97.64 63.9641V66.055H99.64ZM99.64 96.53H97.64V98.1018L99.1673 98.4733L99.64 96.53ZM113.555 100.785L112.805 102.639L112.823 102.646L112.84 102.653L113.555 100.785ZM122.64 107.225L124.17 105.937L124.17 105.937L122.64 107.225ZM81.125 89.745L79.9666 91.3754L79.9765 91.3824L79.9866 91.3894L81.125 89.745ZM93.89 95.035L93.3797 96.9688L95.89 97.6312V95.035H93.89ZM93.89 66.285H95.89V64.1163L93.7284 64.2915L93.89 66.285ZM81.01 71L82.3633 72.4727L82.365 72.4711L81.01 71ZM99.64 133.33H97.64V135.488L99.7915 135.324L99.64 133.33ZM113.325 128.845L112.052 127.302L112.052 127.302L113.325 128.845ZM113.21 109.87L114.31 108.2L114.31 108.2L113.21 109.87ZM99.64 104.58L100.119 102.638L97.64 102.027V104.58H99.64ZM124.32 118.725C124.32 124.043 122.312 128.537 118.185 132.315L120.885 135.265C125.804 130.763 128.32 125.214 128.32 118.725H124.32ZM118.198 132.302C114.137 135.951 108.014 138.132 99.5349 138.578L99.7451 142.572C108.746 142.098 115.886 139.756 120.872 135.278L118.198 132.302ZM97.64 140.575V153.8H101.64V140.575H97.64ZM99.64 151.8H93.89V155.8H99.64V151.8ZM95.89 153.8V140.69H91.89V153.8H95.89ZM93.9994 138.693C88.5911 138.397 83.4987 137.361 78.7127 135.594L77.3273 139.346C82.508 141.259 87.9956 142.37 93.7806 142.687L93.9994 138.693ZM78.7477 135.607C74.0314 133.765 70.426 131.488 67.8379 128.83L64.9721 131.62C68.0574 134.789 72.1952 137.342 77.2923 139.333L78.7477 135.607ZM68.1876 131.132L71.5226 124.577L67.9574 122.763L64.6224 129.318L68.1876 131.132ZM68.3464 125.105C71.2508 127.926 74.9709 130.237 79.4452 132.075L80.9648 128.375C76.8524 126.686 73.5959 124.627 71.1336 122.235L68.3464 125.105ZM79.4566 132.08C84.0265 133.924 88.7975 135.006 93.7612 135.326L94.0188 131.334C89.4758 131.041 85.1235 130.053 80.9534 128.37L79.4566 132.08ZM95.89 133.33V103.085H91.89V133.33H95.89ZM94.3684 101.143C89.1382 99.8545 84.8328 98.5026 81.4285 97.0965L79.9015 100.794C83.5506 102.301 88.0618 103.709 93.4116 105.027L94.3684 101.143ZM81.4625 97.1109C78.2088 95.6962 75.5126 93.695 73.343 91.1056L70.277 93.6744C72.8608 96.7583 76.0679 99.1271 79.8675 100.779L81.4625 97.1109ZM73.3798 91.1507C71.4285 88.6791 70.36 85.3215 70.36 80.89H66.36C66.36 85.9652 67.5915 90.2742 70.2402 93.6293L73.3798 91.1507ZM70.36 80.89C70.36 75.538 72.2786 71.1256 76.1609 67.5206L73.4391 64.5894C68.7347 68.9578 66.36 74.4353 66.36 80.89H70.36ZM76.1748 67.5076C80.021 63.8674 85.8824 61.5868 94.0531 60.9183L93.7269 56.9317C85.0309 57.6431 78.1657 60.1159 73.4252 64.6024L76.1748 67.5076ZM95.89 58.925V45.7H91.89V58.925H95.89ZM93.89 47.7H99.64V43.7H93.89V47.7ZM97.64 45.7V58.81H101.64V45.7H97.64ZM99.5699 60.8088C103.761 60.9558 107.795 61.6536 111.679 62.8994L112.901 59.0906C108.658 57.7297 104.259 56.9708 99.7101 56.8112L99.5699 60.8088ZM111.722 62.9126C115.695 64.09 119.06 65.6553 121.847 67.5844L124.123 64.2956C120.93 62.0847 117.165 60.3534 112.858 59.0774L111.722 62.9126ZM121.144 65.1597L118.268 71.9447L121.952 73.5053L124.827 66.7203L121.144 65.1597ZM121.181 71.036C117.897 68.9536 114.411 67.3104 110.725 66.1085L109.485 69.9115C112.852 71.0096 116.036 72.5097 119.039 74.414L121.181 71.036ZM110.725 66.1085C107.039 64.9066 103.372 64.2189 99.7288 64.057L99.5512 68.053C102.808 68.1978 106.118 68.8134 109.485 69.9115L110.725 66.1085ZM97.64 66.055V96.53H101.64V66.055H97.64ZM99.1673 98.4733C104.788 99.8406 109.325 101.232 112.805 102.639L114.305 98.9308C110.579 97.4245 105.839 95.9794 100.113 94.5867L99.1673 98.4733ZM112.84 102.653C116.131 103.913 118.878 105.862 121.11 108.513L124.17 105.937C121.495 102.761 118.185 100.417 114.27 98.9173L112.84 102.653ZM121.11 108.513C123.19 110.983 124.32 114.323 124.32 118.725H128.32C128.32 113.621 126.996 109.293 124.17 105.937L121.11 108.513ZM74.755 80.66C74.755 85.2075 76.4582 88.8826 79.9666 91.3754L82.2834 88.1146C79.9651 86.4674 78.755 84.0859 78.755 80.66H74.755ZM79.9866 91.3894C83.2445 93.6449 87.7482 95.4827 93.3797 96.9688L94.4003 93.1012C88.9918 91.6739 84.9855 89.9851 82.2634 88.1006L79.9866 91.3894ZM95.89 95.035V66.285H91.89V95.035H95.89ZM93.7284 64.2915C87.799 64.7723 83.0132 66.4359 79.655 69.5289L82.365 72.4711C84.8335 70.1974 88.6344 68.7177 94.0516 68.2785L93.7284 64.2915ZM79.6568 69.5273C76.4103 72.5106 74.755 76.2637 74.755 80.66H78.755C78.755 77.3896 79.9364 74.7027 82.3633 72.4727L79.6568 69.5273ZM99.7915 135.324C106.056 134.848 111.085 133.286 114.598 130.388L112.052 127.302C109.431 129.464 105.337 130.892 99.4885 131.336L99.7915 135.324ZM114.598 130.388C118.116 127.485 119.925 123.704 119.925 119.185H115.925C115.925 122.486 114.667 125.145 112.052 127.302L114.598 130.388ZM119.925 119.185C119.925 114.452 118.078 110.681 114.31 108.2L112.11 111.54C114.628 113.199 115.925 115.638 115.925 119.185H119.925ZM114.31 108.2C110.896 105.951 106.125 104.12 100.119 102.638L99.1609 106.522C104.962 107.953 109.237 109.649 112.11 111.54L114.31 108.2ZM97.64 104.58V133.33H101.64V104.58H97.64Z" fill="black"/>
<path fill-rule="evenodd" clip-rule="evenodd" d="M141.086 19.9043C128.769 13.5733 114.802 10 100 10C50.2944 10 10 50.2944 10 100C10 149.706 50.2944 190 100 190C149.706 190 190 149.706 190 100C190 85.5186 186.58 71.836 180.503 59.716L170.176 68.2637C174.56 77.9407 177 88.6854 177 100C177 142.526 142.526 177 100 177C57.4741 177 23 142.526 23 100C23 57.4741 57.4741 23 100 23C110.648 23 120.791 25.1612 130.014 29.069L141.086 19.9043Z" fill="black"/>
<path d="M164.828 17.1716C163.266 15.6095 160.734 15.6095 159.172 17.1716L133.716 42.6274C132.154 44.1895 132.154 46.7222 133.716 48.2843C135.278 49.8464 137.81 49.8464 139.373 48.2843L162 25.6569L184.627 48.2843C186.19 49.8464 188.722 49.8464 190.284 48.2843C191.846 46.7222 191.846 44.1895 190.284 42.6274L164.828 17.1716ZM166 83V20H158V83H166Z" fill="black"/>
</svg>
