<svg width="200" height="200" viewBox="0 0 200 200" fill="none" xmlns="http://www.w3.org/2000/svg">
<path fill-rule="evenodd" clip-rule="evenodd" d="M22 43C22 40.7909 23.7909 39 26 39H58.9647C60.0335 39 61.0578 39.4277 61.8092 40.1878L75.9975 54.5389C79.0032 57.5791 83.1005 59.2899 87.3756 59.2899H174C176.209 59.2899 178 61.0808 178 63.2899V150C178 152.209 176.209 154 174 154H26C23.7909 154 22 152.209 22 150V43ZM26 27C17.1634 27 10 34.1634 10 43V150C10 158.837 17.1634 166 26 166H174C182.837 166 190 158.837 190 150V63.2899C190 54.4534 182.837 47.2899 174 47.2899H87.3756C86.3068 47.2899 85.2825 46.8622 84.5311 46.1022L70.3428 31.751C67.3371 28.7109 63.2398 27 58.9647 27H26ZM114 132C111.791 132 110 133.791 110 136C110 138.209 111.791 140 114 140H166C168.209 140 170 138.209 170 136C170 133.791 168.209 132 166 132H114Z" fill="black"/>
</svg>
