<svg width="24" height="24" viewBox="0 0 24 24" fill="none" xmlns="http://www.w3.org/2000/svg">
<path fill-rule="evenodd" clip-rule="evenodd" d="M2.5 6C2.5 5.17 3.16998 4.5 4 4.5C4.83002 4.5 5.5 5.17 5.5 6C5.5 6.83 4.83002 7.5 4 7.5C3.16998 7.5 2.5 6.83 2.5 6ZM2.5 12C2.5 11.17 3.16998 10.5 4 10.5C4.83002 10.5 5.5 11.17 5.5 12C5.5 12.83 4.83002 13.5 4 13.5C3.16998 13.5 2.5 12.83 2.5 12ZM4 16.5C3.16998 16.5 2.5 17.18 2.5 18C2.5 18.82 3.17999 19.5 4 19.5C4.82001 19.5 5.5 18.82 5.5 18C5.5 17.18 4.83002 16.5 4 16.5ZM21 19H7V17H21V19ZM7 13H21V11H7V13ZM7 7V5H21V7H7Z" fill="#444444"/>
</svg>
