<svg width="24" height="24" viewBox="0 0 24 24" fill="none" xmlns="http://www.w3.org/2000/svg">
<path fill-rule="evenodd" clip-rule="evenodd" d="M4.75999 2.41304C5.21199 1.27704 6.83899 1.33604 7.20699 2.50204L8.94299 8.00004H15.057L16.793 2.50204C17.161 1.33604 18.788 1.27704 19.241 2.41204L21.715 8.63004L22.671 11.034C22.8225 11.4148 22.8533 11.8328 22.7594 12.2317C22.6655 12.6305 22.4514 12.9909 22.146 13.264L12.666 21.745C12.4827 21.9089 12.2454 21.9995 11.9995 21.9995C11.7536 21.9995 11.5163 21.9089 11.333 21.745L1.85299 13.264C1.54776 12.9908 1.33382 12.6303 1.2401 12.2315C1.14638 11.8327 1.17741 11.4147 1.32899 11.034L2.28599 8.63004L4.75999 2.41304ZM14.425 10H9.57499L12 17.68L14.425 10ZM9.94799 17.822L7.47799 10H3.89299L3.18699 11.773L9.94699 17.822H9.94799ZM4.68799 8.00004H6.84599L5.89199 4.97704L4.68899 8.00004H4.68799ZM14.052 17.822L16.522 10H20.107L20.813 11.773L14.053 17.822H14.052ZM19.312 8.00004H17.154L18.108 4.97704L19.311 8.00004H19.312Z" fill="black"/>
</svg>
