<svg width="200" height="200" viewBox="0 0 200 200" fill="none" xmlns="http://www.w3.org/2000/svg">
<path d="M128.32 118.725C128.32 124.628 126.058 129.65 121.535 133.79C117.012 137.853 110.38 140.115 101.64 140.575V153.8H95.89V140.69C90.2933 140.383 85.0033 139.31 80.02 137.47C75.1133 135.553 71.2417 133.138 68.405 130.225L71.74 123.67C74.4233 126.277 77.9117 128.462 82.205 130.225C86.575 131.988 91.1367 133.023 95.89 133.33V103.085C90.6 101.782 86.1917 100.402 82.665 98.945C79.1383 97.4117 76.1867 95.2267 73.81 92.39C71.51 89.4767 70.36 85.6433 70.36 80.89C70.36 74.9867 72.5067 70.0417 76.8 66.055C81.0933 61.9917 87.4567 59.615 95.89 58.925V45.7H101.64V58.81C106.01 58.9633 110.227 59.6917 114.29 60.995C118.43 62.2217 121.995 63.87 124.985 65.94L122.11 72.725C118.967 70.7317 115.632 69.16 112.105 68.01C108.578 66.86 105.09 66.2083 101.64 66.055V96.53C107.313 97.91 111.952 99.3283 115.555 100.785C119.158 102.165 122.187 104.312 124.64 107.225C127.093 110.138 128.32 113.972 128.32 118.725ZM78.755 80.66C78.755 84.6467 80.2117 87.675 83.125 89.745C86.115 91.815 90.37 93.5783 95.89 95.035V66.285C90.2167 66.745 85.9233 68.3167 83.01 71C80.1733 73.6067 78.755 76.8267 78.755 80.66ZM101.64 133.33C107.697 132.87 112.258 131.375 115.325 128.845C118.392 126.315 119.925 123.095 119.925 119.185C119.925 115.045 118.353 111.94 115.21 109.87C112.067 107.8 107.543 106.037 101.64 104.58V133.33Z" fill="black"/>
<path d="M121.535 133.79L122.872 135.278L122.878 135.272L122.885 135.265L121.535 133.79ZM101.64 140.575L101.535 138.578L99.64 138.677V140.575H101.64ZM101.64 153.8V155.8H103.64V153.8H101.64ZM95.89 153.8H93.89V155.8H95.89V153.8ZM95.89 140.69H97.89V138.797L95.9994 138.693L95.89 140.69ZM80.02 137.47L79.2923 139.333L79.3097 139.34L79.3273 139.346L80.02 137.47ZM68.405 130.225L66.6224 129.318L65.9731 130.594L66.9721 131.62L68.405 130.225ZM71.74 123.67L73.1336 122.235L71.1876 120.345L69.9574 122.763L71.74 123.67ZM82.205 130.225L81.4451 132.075L81.4566 132.08L82.205 130.225ZM95.89 133.33L95.7612 135.326L97.89 135.463V133.33H95.89ZM95.89 103.085H97.89V101.518L96.3684 101.143L95.89 103.085ZM82.665 98.945L81.8675 100.779L81.8844 100.786L81.9015 100.794L82.665 98.945ZM73.81 92.39L72.2402 93.6293L72.2583 93.6521L72.277 93.6744L73.81 92.39ZM76.8 66.055L78.1609 67.5206L78.1679 67.5141L78.1748 67.5076L76.8 66.055ZM95.89 58.925L96.0531 60.9183L97.89 60.768V58.925H95.89ZM95.89 45.7V43.7H93.89V45.7H95.89ZM101.64 45.7H103.64V43.7H101.64V45.7ZM101.64 58.81H99.64V60.7411L101.57 60.8088L101.64 58.81ZM114.29 60.995L113.679 62.8994L113.7 62.9062L113.722 62.9126L114.29 60.995ZM124.985 65.94L126.827 66.7203L127.461 65.2219L126.123 64.2956L124.985 65.94ZM122.11 72.725L121.039 74.414L123.031 75.6774L123.952 73.5053L122.11 72.725ZM112.105 68.01L112.725 66.1085L112.725 66.1085L112.105 68.01ZM101.64 66.055L101.729 64.057L99.64 63.9641V66.055H101.64ZM101.64 96.53H99.64V98.1018L101.167 98.4733L101.64 96.53ZM115.555 100.785L114.805 102.639L114.823 102.646L114.84 102.653L115.555 100.785ZM124.64 107.225L126.17 105.937L126.17 105.937L124.64 107.225ZM83.125 89.745L81.9666 91.3754L81.9765 91.3824L81.9866 91.3894L83.125 89.745ZM95.89 95.035L95.3797 96.9688L97.89 97.6312V95.035H95.89ZM95.89 66.285H97.89V64.1163L95.7284 64.2915L95.89 66.285ZM83.01 71L84.3633 72.4727L84.365 72.4711L83.01 71ZM101.64 133.33H99.64V135.488L101.791 135.324L101.64 133.33ZM115.325 128.845L114.052 127.302L114.052 127.302L115.325 128.845ZM115.21 109.87L116.31 108.2L116.31 108.2L115.21 109.87ZM101.64 104.58L102.119 102.638L99.64 102.027V104.58H101.64ZM126.32 118.725C126.32 124.043 124.312 128.537 120.185 132.315L122.885 135.265C127.804 130.763 130.32 125.214 130.32 118.725H126.32ZM120.198 132.302C116.137 135.951 110.014 138.132 101.535 138.578L101.745 142.572C110.746 142.098 117.886 139.756 122.872 135.278L120.198 132.302ZM99.64 140.575V153.8H103.64V140.575H99.64ZM101.64 151.8H95.89V155.8H101.64V151.8ZM97.89 153.8V140.69H93.89V153.8H97.89ZM95.9994 138.693C90.5911 138.397 85.4987 137.361 80.7127 135.594L79.3273 139.346C84.508 141.259 89.9956 142.37 95.7806 142.687L95.9994 138.693ZM80.7477 135.607C76.0314 133.765 72.426 131.488 69.8379 128.83L66.9721 131.62C70.0574 134.789 74.1952 137.342 79.2923 139.333L80.7477 135.607ZM70.1876 131.132L73.5226 124.577L69.9574 122.763L66.6224 129.318L70.1876 131.132ZM70.3464 125.105C73.2508 127.926 76.9709 130.237 81.4452 132.075L82.9648 128.375C78.8524 126.686 75.5959 124.627 73.1336 122.235L70.3464 125.105ZM81.4566 132.08C86.0265 133.924 90.7975 135.006 95.7612 135.326L96.0188 131.334C91.4758 131.041 87.1235 130.053 82.9534 128.37L81.4566 132.08ZM97.89 133.33V103.085H93.89V133.33H97.89ZM96.3684 101.143C91.1382 99.8545 86.8328 98.5026 83.4285 97.0965L81.9015 100.794C85.5506 102.301 90.0618 103.709 95.4116 105.027L96.3684 101.143ZM83.4625 97.1109C80.2088 95.6962 77.5126 93.695 75.343 91.1056L72.277 93.6744C74.8608 96.7583 78.0679 99.1271 81.8675 100.779L83.4625 97.1109ZM75.3798 91.1507C73.4285 88.6791 72.36 85.3215 72.36 80.89H68.36C68.36 85.9652 69.5915 90.2742 72.2402 93.6293L75.3798 91.1507ZM72.36 80.89C72.36 75.538 74.2786 71.1256 78.1609 67.5206L75.4391 64.5894C70.7347 68.9578 68.36 74.4353 68.36 80.89H72.36ZM78.1748 67.5076C82.021 63.8674 87.8824 61.5868 96.0531 60.9183L95.7269 56.9317C87.0309 57.6431 80.1657 60.1159 75.4252 64.6024L78.1748 67.5076ZM97.89 58.925V45.7H93.89V58.925H97.89ZM95.89 47.7H101.64V43.7H95.89V47.7ZM99.64 45.7V58.81H103.64V45.7H99.64ZM101.57 60.8088C105.761 60.9558 109.795 61.6536 113.679 62.8994L114.901 59.0906C110.658 57.7297 106.259 56.9708 101.71 56.8112L101.57 60.8088ZM113.722 62.9126C117.695 64.09 121.06 65.6553 123.847 67.5844L126.123 64.2956C122.93 62.0847 119.165 60.3534 114.858 59.0774L113.722 62.9126ZM123.144 65.1597L120.268 71.9447L123.952 73.5053L126.827 66.7203L123.144 65.1597ZM123.181 71.036C119.897 68.9536 116.411 67.3104 112.725 66.1085L111.485 69.9115C114.852 71.0096 118.036 72.5097 121.039 74.414L123.181 71.036ZM112.725 66.1085C109.039 64.9066 105.372 64.2189 101.729 64.057L101.551 68.053C104.808 68.1978 108.118 68.8134 111.485 69.9115L112.725 66.1085ZM99.64 66.055V96.53H103.64V66.055H99.64ZM101.167 98.4733C106.788 99.8406 111.325 101.232 114.805 102.639L116.305 98.9308C112.579 97.4245 107.839 95.9794 102.113 94.5867L101.167 98.4733ZM114.84 102.653C118.131 103.913 120.878 105.862 123.11 108.513L126.17 105.937C123.495 102.761 120.185 100.417 116.27 98.9173L114.84 102.653ZM123.11 108.513C125.19 110.983 126.32 114.323 126.32 118.725H130.32C130.32 113.621 128.996 109.293 126.17 105.937L123.11 108.513ZM76.755 80.66C76.755 85.2075 78.4582 88.8826 81.9666 91.3754L84.2834 88.1146C81.9651 86.4674 80.755 84.0859 80.755 80.66H76.755ZM81.9866 91.3894C85.2445 93.6449 89.7482 95.4827 95.3797 96.9688L96.4003 93.1012C90.9918 91.6739 86.9855 89.9851 84.2634 88.1006L81.9866 91.3894ZM97.89 95.035V66.285H93.89V95.035H97.89ZM95.7284 64.2915C89.799 64.7723 85.0132 66.4359 81.655 69.5289L84.365 72.4711C86.8335 70.1974 90.6344 68.7177 96.0516 68.2785L95.7284 64.2915ZM81.6568 69.5273C78.4103 72.5106 76.755 76.2637 76.755 80.66H80.755C80.755 77.3896 81.9364 74.7027 84.3633 72.4727L81.6568 69.5273ZM101.791 135.324C108.056 134.848 113.085 133.286 116.598 130.388L114.052 127.302C111.431 129.464 107.337 130.892 101.489 131.336L101.791 135.324ZM116.598 130.388C120.116 127.485 121.925 123.704 121.925 119.185H117.925C117.925 122.486 116.667 125.145 114.052 127.302L116.598 130.388ZM121.925 119.185C121.925 114.452 120.078 110.681 116.31 108.2L114.11 111.54C116.628 113.199 117.925 115.638 117.925 119.185H121.925ZM116.31 108.2C112.896 105.951 108.125 104.12 102.119 102.638L101.161 106.522C106.962 107.953 111.237 109.649 114.11 111.54L116.31 108.2ZM99.64 104.58V133.33H103.64V104.58H99.64Z" fill="black"/>
<path fill-rule="evenodd" clip-rule="evenodd" d="M180.096 141.086C186.427 128.769 190 114.802 190 100C190 50.2944 149.706 10 100 10C50.2944 10 10 50.2944 10 100C10 149.706 50.2944 190 100 190C114.481 190 128.164 186.58 140.284 180.503L131.736 170.176C122.059 174.56 111.315 177 100 177C57.4741 177 23 142.526 23 100C23 57.4741 57.4741 23 100 23C142.526 23 177 57.4741 177 100C177 110.648 174.839 120.791 170.931 130.014L180.096 141.086Z" fill="black"/>
<path d="M159.172 185.828C160.734 187.391 163.266 187.391 164.828 185.828L190.284 160.373C191.846 158.81 191.846 156.278 190.284 154.716C188.722 153.154 186.19 153.154 184.627 154.716L162 177.343L139.373 154.716C137.81 153.154 135.278 153.154 133.716 154.716C132.154 156.278 132.154 158.81 133.716 160.373L159.172 185.828ZM158 120V183H166V120H158Z" fill="black"/>
</svg>
