<svg width="200" height="200" viewBox="0 0 200 200" fill="none" xmlns="http://www.w3.org/2000/svg">
<mask id="path-1-inside-1" fill="white">
<path fill-rule="evenodd" clip-rule="evenodd" d="M59.4211 55C59.4211 46.7157 66.1369 40 74.4211 40C82.7054 40 89.4211 46.7157 89.4211 55C89.4211 63.2843 82.7054 70 74.4211 70C66.1369 70 59.4211 63.2843 59.4211 55ZM51.0901 64H22C18.6863 64 16 61.3137 16 58C16 54.6863 18.6863 52 22 52H49.5993C51.0814 39.6073 61.6293 30 74.4211 30C86.9681 30 97.3562 39.243 99.1479 51.2913C99.7312 51.1022 100.354 51 101 51L183 51C186.314 51 189 53.6863 189 57C189 60.3137 186.314 63 183 63L101 63C100.036 63 99.1248 62.7726 98.3176 62.3684C95.1728 72.5791 85.6636 80 74.4211 80C63.7868 80 54.7032 73.3601 51.0901 64Z"/>
</mask>
<path fill-rule="evenodd" clip-rule="evenodd" d="M59.4211 55C59.4211 46.7157 66.1369 40 74.4211 40C82.7054 40 89.4211 46.7157 89.4211 55C89.4211 63.2843 82.7054 70 74.4211 70C66.1369 70 59.4211 63.2843 59.4211 55ZM51.0901 64H22C18.6863 64 16 61.3137 16 58C16 54.6863 18.6863 52 22 52H49.5993C51.0814 39.6073 61.6293 30 74.4211 30C86.9681 30 97.3562 39.243 99.1479 51.2913C99.7312 51.1022 100.354 51 101 51L183 51C186.314 51 189 53.6863 189 57C189 60.3137 186.314 63 183 63L101 63C100.036 63 99.1248 62.7726 98.3176 62.3684C95.1728 72.5791 85.6636 80 74.4211 80C63.7868 80 54.7032 73.3601 51.0901 64Z" fill="black"/>
<path d="M51.0901 64L52.9559 63.2798L52.4619 62H51.0901V64ZM49.5993 52V54H51.3744L51.5851 52.2375L49.5993 52ZM99.1479 51.2913L97.1697 51.5855L97.5172 53.9224L99.7647 53.1938L99.1479 51.2913ZM101 51L101 53L101 53L101 51ZM183 51L183 49L183 49L183 51ZM183 63L183 61L183 61L183 63ZM101 63L101 65H101L101 63ZM98.3176 62.3684L99.2129 60.5801L97.1013 59.5229L96.4062 61.7798L98.3176 62.3684ZM74.4211 38C65.0323 38 57.4211 45.6112 57.4211 55H61.4211C61.4211 47.8203 67.2414 42 74.4211 42V38ZM91.4211 55C91.4211 45.6112 83.81 38 74.4211 38V42C81.6008 42 87.4211 47.8203 87.4211 55H91.4211ZM74.4211 72C83.81 72 91.4211 64.3888 91.4211 55H87.4211C87.4211 62.1797 81.6008 68 74.4211 68V72ZM57.4211 55C57.4211 64.3888 65.0323 72 74.4211 72V68C67.2414 68 61.4211 62.1797 61.4211 55H57.4211ZM22 66H51.0901V62H22V66ZM14 58C14 62.4183 17.5817 66 22 66V62C19.7909 62 18 60.2091 18 58H14ZM22 50C17.5817 50 14 53.5817 14 58H18C18 55.7909 19.7909 54 22 54V50ZM49.5993 50H22V54H49.5993V50ZM51.5851 52.2375C52.9484 40.8383 62.6541 32 74.4211 32V28C60.6045 28 49.2143 38.3763 47.6134 51.7625L51.5851 52.2375ZM74.4211 32C85.9625 32 95.5216 40.5028 97.1697 51.5855L101.126 50.9971C99.1908 37.9831 87.9736 28 74.4211 28V32ZM101 49C100.142 49 99.3112 49.1359 98.5311 49.3888L99.7647 53.1938C100.151 53.0685 100.566 53 101 53V49ZM183 49L101 49L101 53L183 53L183 49ZM191 57C191 52.5817 187.418 49 183 49V53C185.209 53 187 54.7909 187 57H191ZM183 65C187.418 65 191 61.4183 191 57H187C187 59.2091 185.209 61 183 61V65ZM101 65L183 65L183 61L101 61L101 65ZM97.4222 64.1568C98.5011 64.697 99.718 65 101 65V61C100.354 61 99.7485 60.8482 99.2129 60.5801L97.4222 64.1568ZM96.4062 61.7798C93.5124 71.1752 84.7612 78 74.4211 78V82C86.566 82 96.8331 73.983 100.229 62.9571L96.4062 61.7798ZM74.4211 78C64.6407 78 56.2813 71.8944 52.9559 63.2798L49.2243 64.7202C53.1251 74.8258 62.9329 82 74.4211 82V78Z" fill="black" mask="url(#path-1-inside-1)"/>
<mask id="path-3-inside-2" fill="white">
<path fill-rule="evenodd" clip-rule="evenodd" d="M145.579 155C145.579 163.284 138.863 170 130.579 170C122.295 170 115.579 163.284 115.579 155C115.579 146.716 122.295 140 130.579 140C138.863 140 145.579 146.716 145.579 155ZM153.91 146H183C186.314 146 189 148.686 189 152C189 155.314 186.314 158 183 158H155.401C153.919 170.393 143.371 180 130.579 180C118.032 180 107.644 170.757 105.852 158.709C105.269 158.898 104.646 159 104 159L22 159C18.6863 159 16 156.314 16 153C16 149.686 18.6863 147 22 147L104 147C104.964 147 105.875 147.227 106.682 147.632C109.827 137.421 119.336 130 130.579 130C141.213 130 150.297 136.64 153.91 146Z"/>
</mask>
<path fill-rule="evenodd" clip-rule="evenodd" d="M145.579 155C145.579 163.284 138.863 170 130.579 170C122.295 170 115.579 163.284 115.579 155C115.579 146.716 122.295 140 130.579 140C138.863 140 145.579 146.716 145.579 155ZM153.91 146H183C186.314 146 189 148.686 189 152C189 155.314 186.314 158 183 158H155.401C153.919 170.393 143.371 180 130.579 180C118.032 180 107.644 170.757 105.852 158.709C105.269 158.898 104.646 159 104 159L22 159C18.6863 159 16 156.314 16 153C16 149.686 18.6863 147 22 147L104 147C104.964 147 105.875 147.227 106.682 147.632C109.827 137.421 119.336 130 130.579 130C141.213 130 150.297 136.64 153.91 146Z" fill="black"/>
<path d="M153.91 146L152.044 146.72L152.538 148H153.91V146ZM155.401 158V156H153.626L153.415 157.763L155.401 158ZM105.852 158.709L107.83 158.415L107.483 156.078L105.235 156.806L105.852 158.709ZM104 159L104 157L104 157L104 159ZM22 159L22 161L22 161L22 159ZM22 147L22 149L22 149L22 147ZM104 147L104 145H104L104 147ZM106.682 147.632L105.787 149.42L107.899 150.477L108.594 148.22L106.682 147.632ZM130.579 172C139.968 172 147.579 164.389 147.579 155H143.579C143.579 162.18 137.759 168 130.579 168V172ZM113.579 155C113.579 164.389 121.19 172 130.579 172V168C123.399 168 117.579 162.18 117.579 155H113.579ZM130.579 138C121.19 138 113.579 145.611 113.579 155H117.579C117.579 147.82 123.399 142 130.579 142V138ZM147.579 155C147.579 145.611 139.968 138 130.579 138V142C137.759 142 143.579 147.82 143.579 155H147.579ZM183 144H153.91V148H183V144ZM191 152C191 147.582 187.418 144 183 144V148C185.209 148 187 149.791 187 152H191ZM183 160C187.418 160 191 156.418 191 152H187C187 154.209 185.209 156 183 156V160ZM155.401 160H183V156H155.401V160ZM153.415 157.763C152.052 169.162 142.346 178 130.579 178V182C144.396 182 155.786 171.624 157.387 158.237L153.415 157.763ZM130.579 178C119.037 178 109.478 169.497 107.83 158.415L103.874 159.003C105.809 172.017 117.026 182 130.579 182V178ZM104 161C104.858 161 105.689 160.864 106.469 160.611L105.235 156.806C104.849 156.931 104.434 157 104 157V161ZM22 161L104 161L104 157L22 157L22 161ZM14 153C14 157.418 17.5817 161 22 161V157C19.7909 157 18 155.209 18 153H14ZM22 145C17.5817 145 14 148.582 14 153H18C18 150.791 19.7909 149 22 149V145ZM104 145L22 145L22 149L104 149L104 145ZM107.578 145.843C106.499 145.303 105.282 145 104 145V149C104.646 149 105.252 149.152 105.787 149.42L107.578 145.843ZM108.594 148.22C111.488 138.825 120.239 132 130.579 132V128C118.434 128 108.167 136.017 104.771 147.043L108.594 148.22ZM130.579 132C140.359 132 148.719 138.106 152.044 146.72L155.776 145.28C151.875 135.174 142.067 128 130.579 128V132Z" fill="black" mask="url(#path-3-inside-2)"/>
</svg>
