<svg width="200" height="200" viewBox="0 0 200 200" fill="none" xmlns="http://www.w3.org/2000/svg">
<path fill-rule="evenodd" clip-rule="evenodd" d="M106 18H156C157.105 18 158 18.8954 158 20V180C158 181.105 157.105 182 156 182H44C42.8954 182 42 181.105 42 180V20C42 18.8954 42.8954 18 44 18H52V74.2442C52 79.5585 58.3986 82.2494 62.1967 78.5323L79.3363 61.7583L95.7324 78.3487C99.5019 82.1628 106 79.4936 106 74.1311V18ZM98 18H60V69.4885L75.1632 54.6487C77.5232 52.339 81.3061 52.3705 83.6274 54.7192L98 69.2621V18ZM100 10H156C161.523 10 166 14.4772 166 20V180C166 185.523 161.523 190 156 190H44C38.4772 190 34 185.523 34 180V20C34 14.4772 38.4772 10 44 10H58H100Z" fill="black"/>
<path d="M106 18V16.5H104.5V18H106ZM52 18H53.5V16.5H52V18ZM62.1967 78.5323L61.1475 77.4603L61.1475 77.4603L62.1967 78.5323ZM79.3363 61.7583L80.4032 60.7039L79.3539 59.6422L78.2871 60.6862L79.3363 61.7583ZM95.7324 78.3487L94.6656 79.4031L94.6656 79.4031L95.7324 78.3487ZM98 18H99.5V16.5H98V18ZM60 18V16.5H58.5V18H60ZM60 69.4885H58.5V73.0553L61.0492 70.5605L60 69.4885ZM75.1632 54.6487L76.2123 55.7207L76.2123 55.7207L75.1632 54.6487ZM83.6274 54.7192L84.6943 53.6648L84.6943 53.6648L83.6274 54.7192ZM98 69.2621L96.9331 70.3165L99.5 72.9138V69.2621H98ZM156 16.5H106V19.5H156V16.5ZM159.5 20C159.5 18.067 157.933 16.5 156 16.5V19.5C156.276 19.5 156.5 19.7239 156.5 20H159.5ZM159.5 180V20H156.5V180H159.5ZM156 183.5C157.933 183.5 159.5 181.933 159.5 180H156.5C156.5 180.276 156.276 180.5 156 180.5V183.5ZM44 183.5H156V180.5H44V183.5ZM40.5 180C40.5 181.933 42.067 183.5 44 183.5V180.5C43.7239 180.5 43.5 180.276 43.5 180H40.5ZM40.5 20V180H43.5V20H40.5ZM44 16.5C42.067 16.5 40.5 18.067 40.5 20H43.5C43.5 19.7239 43.7239 19.5 44 19.5V16.5ZM52 16.5H44V19.5H52V16.5ZM53.5 74.2442V18H50.5V74.2442H53.5ZM61.1475 77.4603C58.299 80.2481 53.5 78.23 53.5 74.2442H50.5C50.5 80.8871 58.4983 84.2507 63.2458 79.6044L61.1475 77.4603ZM78.2871 60.6862L61.1475 77.4603L63.2458 79.6044L80.3855 62.8303L78.2871 60.6862ZM96.7993 77.2943L80.4032 60.7039L78.2694 62.8127L94.6656 79.4031L96.7993 77.2943ZM104.5 74.1311C104.5 78.1529 99.6264 80.1548 96.7993 77.2943L94.6656 79.4031C99.3774 84.1707 107.5 80.8342 107.5 74.1311H104.5ZM104.5 18V74.1311H107.5V18H104.5ZM98 16.5H60V19.5H98V16.5ZM58.5 18V69.4885H61.5V18H58.5ZM61.0492 70.5605L76.2123 55.7207L74.114 53.5767L58.9508 68.4164L61.0492 70.5605ZM76.2123 55.7207C77.9824 53.9884 80.8195 54.0121 82.5605 55.7736L84.6943 53.6648C81.7927 50.7289 77.0641 50.6895 74.114 53.5767L76.2123 55.7207ZM82.5605 55.7736L96.9331 70.3165L99.0669 68.2078L84.6943 53.6648L82.5605 55.7736ZM99.5 69.2621V18H96.5V69.2621H99.5ZM156 8.5H100V11.5H156V8.5ZM167.5 20C167.5 13.6487 162.351 8.5 156 8.5V11.5C160.694 11.5 164.5 15.3056 164.5 20H167.5ZM167.5 180V20H164.5V180H167.5ZM156 191.5C162.351 191.5 167.5 186.351 167.5 180H164.5C164.5 184.694 160.694 188.5 156 188.5V191.5ZM44 191.5H156V188.5H44V191.5ZM32.5 180C32.5 186.351 37.6487 191.5 44 191.5V188.5C39.3056 188.5 35.5 184.694 35.5 180H32.5ZM32.5 20V180H35.5V20H32.5ZM44 8.5C37.6487 8.5 32.5 13.6487 32.5 20H35.5C35.5 15.3056 39.3056 11.5 44 11.5V8.5ZM58 8.5H44V11.5H58V8.5ZM58 11.5H100V8.5H58V11.5Z" fill="black"/>
</svg>
