<svg width="18" height="19" viewBox="0 0 18 19" fill="none" xmlns="http://www.w3.org/2000/svg">
<path fill-rule="evenodd" clip-rule="evenodd" d="M11.965 11.8354H12.755L17.745 16.8354L16.255 18.3254L11.255 13.3354V12.5454L10.985 12.2654C9.845 13.2454 8.365 13.8354 6.755 13.8354C3.165 13.8354 0.255005 10.9254 0.255005 7.33545C0.255005 3.74545 3.165 0.835449 6.755 0.835449C10.345 0.835449 13.255 3.74545 13.255 7.33545C13.255 8.94545 12.665 10.4254 11.685 11.5654L11.965 11.8354ZM2.255 7.33545C2.255 9.82545 4.26501 11.8354 6.755 11.8354C9.245 11.8354 11.255 9.82545 11.255 7.33545C11.255 4.84545 9.245 2.83545 6.755 2.83545C4.26501 2.83545 2.255 4.84545 2.255 7.33545Z" fill="#444444"/>
</svg>
