<svg width="200" height="200" viewBox="0 0 200 200" fill="none" xmlns="http://www.w3.org/2000/svg">
<path fill-rule="evenodd" clip-rule="evenodd" d="M76 18V70.6903H128V18H76ZM73 5C67.4772 5 63 9.47716 63 15V73.6903C63 75.2334 63.3495 76.695 63.9738 78H36C30.4772 78 26 82.4772 26 88V146.69C26 152.213 30.4772 156.69 36 156.69H94C97.2712 156.69 100.176 155.12 102 152.691C103.824 155.12 106.729 156.69 110 156.69H168C173.523 156.69 178 152.213 178 146.69V88C178 82.4771 173.523 78 168 78H140.026C140.65 76.695 141 75.2334 141 73.6902V15C141 9.47715 136.523 5 131 5H73ZM113 91V143.69H165V91H113ZM14 161C10.6863 161 8 163.686 8 167C8 170.314 10.6863 173 14 173H25.8114C22.3086 175.15 20 178.826 20 183C20 189.627 25.8203 195 33 195C40.1797 195 46 189.627 46 183C46 178.826 43.6914 175.15 40.1886 173H159.811C156.309 175.15 154 178.826 154 183C154 189.627 159.82 195 167 195C174.18 195 180 189.627 180 183C180 178.826 177.691 175.15 174.189 173H185.5C188.814 173 191.5 170.314 191.5 167C191.5 163.686 188.814 161 185.5 161H14ZM148.531 108.637C151.845 108.637 154.531 105.951 154.531 102.637C154.531 99.3235 151.845 96.6372 148.531 96.6372H129.469C126.155 96.6372 123.469 99.3235 123.469 102.637C123.469 105.951 126.155 108.637 129.469 108.637H148.531ZM111.531 35.6372C114.845 35.6372 117.531 32.9509 117.531 29.6372C117.531 26.3235 114.845 23.6372 111.531 23.6372H92.469C89.1552 23.6372 86.469 26.3235 86.469 29.6372C86.469 32.9509 89.1552 35.6372 92.469 35.6372H111.531ZM39 91V143.69H91V91H39ZM74.5309 108.637C77.8446 108.637 80.5309 105.951 80.5309 102.637C80.5309 99.3235 77.8446 96.6372 74.5309 96.6372H55.469C52.1552 96.6372 49.469 99.3235 49.469 102.637C49.469 105.951 52.1552 108.637 55.469 108.637H74.5309Z" fill="black"/>
</svg>
