<svg width="24" height="24" viewBox="0 0 24 24" fill="none" xmlns="http://www.w3.org/2000/svg">
<path fill-rule="evenodd" clip-rule="evenodd" d="M4.69 6.5248L2.01 3.8448L3.42 2.4248L21.15 20.1648L19.74 21.5748L16.32 18.1548C14.98 18.6848 13.52 18.9748 12 18.9748C7 18.9748 2.73 15.8648 1 11.4748C1.77 9.5048 3.06 7.8048 4.69 6.5248ZM12 5.97476C15.79 5.97476 19.17 8.10476 20.82 11.4748C20.23 12.6948 19.4 13.7448 18.41 14.5948L19.82 16.0048C21.21 14.7748 22.31 13.2348 23 11.4748C21.27 7.08476 17 3.97476 12 3.97476C10.73 3.97476 9.51 4.17476 8.36 4.54476L10.01 6.19476C10.66 6.06476 11.32 5.97476 12 5.97476ZM10.93 7.11474L13 9.18474C13.57 9.43474 14.03 9.89474 14.28 10.4647L16.35 12.5347C16.43 12.1947 16.49 11.8347 16.49 11.4647C16.5 8.98474 14.48 6.97474 12 6.97474C11.63 6.97474 11.28 7.02474 10.93 7.11474ZM9.51 11.3447L12.12 13.9547C12.08 13.9647 12.04 13.9747 12 13.9747C10.62 13.9747 9.5 12.8547 9.5 11.4747C9.5 11.4497 9.5025 11.4297 9.505 11.4098L9.505 11.4097L9.505 11.4097C9.5075 11.3897 9.51 11.3697 9.51 11.3447ZM7.86 9.69478L6.11 7.94478C4.9 8.86478 3.88 10.0448 3.18 11.4748C4.83 14.8448 8.21 16.9748 12 16.9748C12.95 16.9748 13.87 16.8348 14.75 16.5948L13.77 15.6148C13.23 15.8448 12.63 15.9748 12 15.9748C9.52 15.9748 7.5 13.9548 7.5 11.4748C7.5 10.8448 7.63 10.2448 7.86 9.69478Z" fill="#444444"/>
</svg>
