<svg width="24" height="24" viewBox="0 0 24 24" fill="none" xmlns="http://www.w3.org/2000/svg">
<path d="M19.2182 15.3455C19.2182 19.2918 16.019 22.4909 12.0727 22.4909C8.12637 22.4909 4.92725 19.2918 4.92725 15.3455C4.92725 13.3834 5.83951 11.1994 7.3495 8.76784C8.62542 6.7132 10.2548 4.59215 11.9534 2.38088C11.9877 2.33619 12.0221 2.29146 12.0565 2.24669C12.3503 2.6425 12.6446 3.03623 12.9375 3.42804C14.2814 5.2259 15.5953 6.98367 16.6906 8.71942C18.2448 11.1822 19.2182 13.3954 19.2182 15.3455Z" stroke="#444444" stroke-width="2"/>
<path d="M19.9274 15.6364C19.9274 19.9743 16.4108 23.4909 12.0728 23.4909C7.73486 23.4909 4.21826 19.9743 4.21826 15.6364C4.21826 11.2984 5.96372 15.8545 12.4364 12.4364C18.9092 9.01818 19.9274 11.2984 19.9274 15.6364Z" fill="#444444"/>
</svg>
